<?xml version="1.0" encoding="UTF-8"?>
<svg xmlns="http://www.w3.org/2000/svg" xmlns:xlink="http://www.w3.org/1999/xlink" width="24px" height="24px" viewBox="0 0 24 24" version="1.1">
<g id="surface1">
<path style=" stroke:none;fill-rule:nonzero;fill:rgb(0%,0%,0%);fill-opacity:1;" d="M 20.484375 3.515625 C 18.21875 1.246094 15.203125 0 12 0 C 8.796875 0 5.78125 1.246094 3.515625 3.515625 C 1.246094 5.78125 0 8.796875 0 12 C 0 15.203125 1.246094 18.21875 3.515625 20.484375 C 5.78125 22.753906 8.796875 24 12 24 C 15.203125 24 18.21875 22.753906 20.484375 20.484375 C 22.753906 18.21875 24 15.203125 24 12 C 24 8.796875 22.753906 5.78125 20.484375 3.515625 Z M 12 22.675781 C 6.117188 22.675781 1.324219 17.882812 1.324219 12 C 1.324219 6.117188 6.117188 1.324219 12 1.324219 C 17.882812 1.324219 22.675781 6.117188 22.675781 12 C 22.675781 17.882812 17.882812 22.675781 12 22.675781 Z M 12 22.675781 "/>
<path style=" stroke:none;fill-rule:nonzero;fill:rgb(0%,0%,0%);fill-opacity:1;" d="M 12 9.972656 C 13.722656 9.972656 15.121094 8.570312 15.121094 6.851562 C 15.121094 5.132812 13.722656 3.726562 12 3.726562 C 10.277344 3.726562 8.878906 5.128906 8.878906 6.847656 C 8.878906 8.5625 10.277344 9.972656 12 9.972656 Z M 12 5.050781 C 12.992188 5.050781 13.796875 5.855469 13.796875 6.847656 C 13.796875 7.839844 12.992188 8.644531 12 8.644531 C 11.007812 8.644531 10.203125 7.839844 10.203125 6.847656 C 10.203125 5.855469 11.007812 5.050781 12 5.050781 Z M 12 5.050781 "/>
<path style=" stroke:none;fill-rule:nonzero;fill:rgb(0%,0%,0%);fill-opacity:1;" d="M 16.730469 13.765625 C 15.636719 12.15625 14.046875 11.335938 12 11.335938 C 9.953125 11.335938 8.363281 12.152344 7.269531 13.765625 C 6.453125 14.964844 5.933594 16.597656 5.726562 18.609375 C 5.6875 18.972656 5.953125 19.304688 6.316406 19.335938 C 6.679688 19.375 7.007812 19.113281 7.042969 18.75 C 7.460938 14.710938 9.128906 12.664062 12 12.664062 C 14.871094 12.664062 16.539062 14.710938 16.957031 18.75 C 16.992188 19.085938 17.28125 19.34375 17.613281 19.34375 C 17.640625 19.34375 17.660156 19.34375 17.683594 19.335938 C 18.046875 19.296875 18.3125 18.972656 18.273438 18.609375 C 18.066406 16.59375 17.546875 14.964844 16.730469 13.765625 Z M 16.730469 13.765625 "/>
</g>
</svg>
